<svg width="27" height="22" viewBox="0 0 27 22" fill="none" xmlns="http://www.w3.org/2000/svg">
<path fill-rule="evenodd" clip-rule="evenodd" d="M3 9.5C2.44772 9.5 2 9.94772 2 10.5V11C2 11.5523 2.44772 12 3 12H24C24.5523 12 25 11.5523 25 11V10.5C25 9.94772 24.5523 9.5 24 9.5H3ZM0 10.5C0 8.84315 1.34315 7.5 3 7.5H24C25.6569 7.5 27 8.84315 27 10.5V11C27 12.6569 25.6569 14 24 14H3C1.34315 14 0 12.6569 0 11V10.5Z" fill="white"/>
<path fill-rule="evenodd" clip-rule="evenodd" d="M3 17C2.44772 17 2 17.4477 2 18V18.5C2 19.0523 2.44772 19.5 3 19.5H24C24.5523 19.5 25 19.0523 25 18.5V18C25 17.4477 24.5523 17 24 17H3ZM0 18C0 16.3431 1.34315 15 3 15H24C25.6569 15 27 16.3431 27 18V18.5C27 20.1569 25.6569 21.5 24 21.5H3C1.34315 21.5 0 20.1569 0 18.5V18Z" fill="white"/>
<path fill-rule="evenodd" clip-rule="evenodd" d="M3 2C2.44772 2 2 2.44772 2 3V3.5C2 4.05228 2.44772 4.5 3 4.5H24C24.5523 4.5 25 4.05228 25 3.5V3C25 2.44772 24.5523 2 24 2H3ZM0 3C0 1.34315 1.34315 0 3 0H24C25.6569 0 27 1.34315 27 3V3.5C27 5.15685 25.6569 6.5 24 6.5H3C1.34315 6.5 0 5.15685 0 3.5V3Z" fill="white"/>
</svg>
