<svg width="13" height="15" viewBox="0 0 13 15" fill="none" xmlns="http://www.w3.org/2000/svg">
<path d="M0.286939 12.7674C0.0894585 13.2832 0.347485 13.8614 0.863256 14.0589C1.37903 14.2564 1.95723 13.9983 2.15471 13.4826L0.286939 12.7674ZM10.9119 13.4826C11.1094 13.9983 11.6876 14.2564 12.2034 14.0589C12.7192 13.8614 12.9772 13.2832 12.7797 12.7674L10.9119 13.4826ZM2.15471 13.4826L4.81096 6.54507L2.94319 5.82993L0.286939 12.7674L2.15471 13.4826ZM4.81096 6.54507L6.53333 2.04666L4.66555 1.33152L2.94319 5.82993L4.81096 6.54507ZM6.53333 2.04666L8.25569 6.54507L10.1235 5.82993L8.4011 1.33152L6.53333 2.04666ZM8.25569 6.54507L10.9119 13.4826L12.7797 12.7674L10.1235 5.82993L8.25569 6.54507ZM3.87708 7.1875H9.18958V5.1875H3.87708V7.1875ZM6.53333 2.04666L6.53333 2.04666L8.4011 1.33152C7.74516 -0.381625 5.32149 -0.381628 4.66555 1.33152L6.53333 2.04666Z" fill="white"/>
</svg>
