<svg width="28" height="29" viewBox="0 0 28 29" fill="none" xmlns="http://www.w3.org/2000/svg">
<path fill-rule="evenodd" clip-rule="evenodd" d="M3.9964 16.9827C4.60385 16.9827 5.09629 17.5107 5.09629 18.1621V22.8798C5.09629 23.1926 5.21217 23.4925 5.41843 23.7137C5.6247 23.9349 5.90446 24.0592 6.19617 24.0592H21.5946C21.8863 24.0592 22.166 23.9349 22.3723 23.7137C22.5786 23.4925 22.6945 23.1926 22.6945 22.8798V18.1621C22.6945 17.5107 23.1869 16.9827 23.7943 16.9827C24.4018 16.9827 24.8942 17.5107 24.8942 18.1621V22.8798C24.8942 23.8182 24.5466 24.7181 23.9278 25.3817C23.309 26.0452 22.4697 26.418 21.5946 26.418H6.19617C5.32105 26.418 4.48177 26.0452 3.86296 25.3817C3.24416 24.7181 2.89651 23.8182 2.89651 22.8798V18.1621C2.89651 17.5107 3.38895 16.9827 3.9964 16.9827Z" fill="white"/>
<path d="M8.22148 10.1824C7.84481 10.5863 7.86688 11.2191 8.27079 11.5957C8.67469 11.9724 9.30747 11.9503 9.68414 11.5464L8.22148 10.1824ZM18.1204 11.5464C18.4971 11.9503 19.1299 11.9724 19.5338 11.5957C19.9377 11.2191 19.9598 10.5863 19.5831 10.1824L18.1204 11.5464ZM12.9023 18.9729C12.9023 19.5252 13.35 19.9729 13.9023 19.9729C14.4546 19.9729 14.9023 19.5252 14.9023 18.9729L12.9023 18.9729ZM14.9023 7.375C14.9023 6.82271 14.4546 6.375 13.9023 6.375C13.35 6.375 12.9023 6.82271 12.9023 7.375L14.9023 7.375ZM9.68414 11.5464L13.9023 7.02326L12.4396 5.65922L8.22148 10.1824L9.68414 11.5464ZM13.9023 7.02326L18.1204 11.5464L19.5831 10.1824L15.365 5.65922L13.9023 7.02326ZM14.9023 18.9729L14.9023 7.375L12.9023 7.375L12.9023 18.9729L14.9023 18.9729ZM13.9023 7.02326L13.9023 7.02326L15.365 5.65922C14.5742 4.81127 13.2304 4.81128 12.4396 5.65922L13.9023 7.02326Z" fill="white"/>
</svg>
