<svg width="33" height="36" viewBox="0 0 33 36" fill="none" xmlns="http://www.w3.org/2000/svg">
<path d="M27.693 11.9675C27.606 12.3442 27.8408 12.7201 28.2175 12.8071C28.5942 12.8941 28.9701 12.6592 29.057 12.2825L27.693 11.9675ZM13.1651 3.8466C12.9078 4.13512 12.9331 4.57761 13.2216 4.83494C13.5101 5.09226 13.9526 5.06697 14.2099 4.77845L13.1651 3.8466ZM12.6312 2.58925C12.6312 2.20265 12.3178 1.88925 11.9312 1.88925C11.5446 1.88925 11.2312 2.20265 11.2312 2.58925H12.6312ZM15.1016 6.8452C15.4882 6.8452 15.8016 6.5318 15.8016 6.1452C15.8016 5.7586 15.4882 5.4452 15.1016 5.4452V6.8452ZM20.2876 2.27794C22.5337 2.27794 24.7521 3.13848 26.2169 4.75143C27.6617 6.34237 28.439 8.73719 27.693 11.9675L29.057 12.2825C29.8942 8.65778 29.0412 5.77906 27.2533 3.81023C25.4853 1.8634 22.8683 0.877942 20.2876 0.877942V2.27794ZM14.2099 4.77845C15.6556 3.1575 17.8572 2.27794 20.2876 2.27794V0.877942C17.5299 0.877942 14.9207 1.87812 13.1651 3.8466L14.2099 4.77845ZM11.2312 2.58925V5.1452H12.6312V2.58925H11.2312ZM12.9312 6.8452H15.1016V5.4452H12.9312V6.8452ZM11.2312 5.1452C11.2312 6.08408 11.9923 6.8452 12.9312 6.8452V5.4452C12.7655 5.4452 12.6312 5.31088 12.6312 5.1452H11.2312Z" fill="white"/>
<path d="M13.5592 11.0503C12.7808 8.50812 10.4154 6.65942 7.61821 6.65942C4.18731 6.65942 1.40602 9.44072 1.40602 12.8716C1.40602 16.0434 3.78301 18.6599 6.85278 19.0371" stroke="white" stroke-width="1.4" stroke-linecap="round"/>
<circle cx="19.9247" cy="22.8613" r="11.4693" stroke="white" stroke-width="1.4"/>
</svg>
