<svg width="31" height="31" viewBox="0 0 31 31" fill="none" xmlns="http://www.w3.org/2000/svg">
<path d="M22.6212 0.921997C22.0689 0.921997 21.6212 1.36971 21.6212 1.922C21.6212 2.47428 22.0689 2.922 22.6212 2.922V0.921997ZM28.639 9.31919C28.639 9.87148 29.0867 10.3192 29.639 10.3192C30.1913 10.3192 30.639 9.87148 30.639 9.31919H28.639ZM22.6212 2.922H27.639V0.921997H22.6212V2.922ZM28.639 3.922V9.31919H30.639V3.922H28.639ZM27.639 2.922C28.1913 2.922 28.639 3.36971 28.639 3.922H30.639C30.639 2.26514 29.2959 0.921997 27.639 0.921997V2.922Z" fill="white"/>
<path d="M9.17419 30.2164C9.72648 30.2164 10.1742 29.7687 10.1742 29.2164C10.1742 28.6641 9.72648 28.2164 9.17419 28.2164L9.17419 30.2164ZM3.15634 21.8192C3.15634 21.267 2.70863 20.8192 2.15634 20.8192C1.60406 20.8192 1.15634 21.267 1.15634 21.8192L3.15634 21.8192ZM9.17419 28.2164L4.15634 28.2164L4.15634 30.2164L9.17419 30.2164L9.17419 28.2164ZM3.15634 27.2164L3.15634 21.8192L1.15634 21.8192L1.15634 27.2164L3.15634 27.2164ZM4.15634 28.2164C3.60406 28.2164 3.15634 27.7687 3.15634 27.2164L1.15634 27.2164C1.15634 28.8733 2.49949 30.2164 4.15634 30.2164L4.15634 28.2164Z" fill="white"/>
<path d="M0.966675 9.12952C0.966675 9.6818 1.41439 10.1295 1.96667 10.1295C2.51896 10.1295 2.96667 9.6818 2.96667 9.12952L0.966675 9.12952ZM9.36387 3.11167C9.91615 3.11167 10.3639 2.66395 10.3639 2.11167C10.3639 1.55938 9.91615 1.11167 9.36387 1.11167L9.36387 3.11167ZM2.96667 9.12952L2.96667 4.11167L0.966675 4.11167L0.966675 9.12952L2.96667 9.12952ZM3.96667 3.11167L9.36387 3.11167L9.36387 1.11167L3.96667 1.11167L3.96667 3.11167ZM2.96667 4.11167C2.96667 3.55938 3.41439 3.11167 3.96667 3.11167L3.96667 1.11167C2.30982 1.11167 0.966675 2.45481 0.966675 4.11167L2.96667 4.11167Z" fill="white"/>
<path d="M30.8287 22.0089C30.8287 21.4566 30.381 21.0089 29.8287 21.0089C29.2764 21.0089 28.8287 21.4566 28.8287 22.0089L30.8287 22.0089ZM22.4315 28.0268C21.8792 28.0268 21.4315 28.4745 21.4315 29.0268C21.4315 29.579 21.8792 30.0268 22.4315 30.0268L22.4315 28.0268ZM28.8287 22.0089L28.8287 27.0268L30.8287 27.0268L30.8287 22.0089L28.8287 22.0089ZM27.8287 28.0268L22.4315 28.0268L22.4315 30.0268L27.8287 30.0268L27.8287 28.0268ZM28.8287 27.0268C28.8287 27.579 28.381 28.0268 27.8287 28.0268L27.8287 30.0268C29.4855 30.0268 30.8287 28.6836 30.8287 27.0268L28.8287 27.0268Z" fill="white"/>
</svg>
