<?xml version="1.0" standalone="no"?>
<!DOCTYPE svg PUBLIC "-//W3C//DTD SVG 20010904//EN"
 "http://www.w3.org/TR/2001/REC-SVG-20010904/DTD/svg10.dtd">
<svg version="1.0" xmlns="http://www.w3.org/2000/svg"
 width="260.000000pt" height="260.000000pt" viewBox="0 0 260.000000 260.000000"
 preserveAspectRatio="xMidYMid meet">
<metadata>
Created by potrace 1.14, written by Peter Selinger 2001-2017
</metadata>
<g transform="translate(0.000000,260.000000) scale(0.100000,-0.100000)"
fill="#000000" stroke="none">
<path d="M1296 2431 c-15 -23 -44 -120 -39 -125 4 -3 1 -6 -6 -6 -7 0 -9 -4
-6 -10 3 -5 2 -10 -2 -10 -5 0 -9 -8 -10 -17 0 -15 -75 -234 -100 -293 -3 -8
-7 -22 -9 -30 -1 -8 -14 -45 -27 -82 -14 -37 -22 -69 -19 -72 3 -4 0 -6 -6 -6
-7 0 -11 -3 -11 -7 1 -5 0 -11 -1 -15 -1 -5 -3 -11 -4 -15 -5 -22 -29 -91 -37
-109 -6 -11 -27 -26 -47 -34 -20 -7 -79 -33 -132 -58 -52 -24 -99 -45 -105
-47 -5 -1 -39 -15 -75 -32 -36 -17 -87 -40 -115 -52 -27 -12 -66 -30 -85 -39
-19 -9 -37 -17 -40 -17 -3 0 -26 -10 -52 -22 -25 -12 -56 -24 -67 -28 -12 -3
-21 -10 -21 -14 0 -4 -7 -8 -15 -9 -8 -1 -22 -3 -30 -4 -8 -1 -15 -4 -15 -7 0
-3 -15 -12 -32 -20 -98 -41 -120 -53 -112 -60 5 -5 34 -16 64 -25 30 -9 64
-21 75 -25 11 -5 40 -15 65 -22 25 -7 49 -16 54 -21 6 -4 18 -8 28 -8 10 0 18
-4 18 -10 0 -5 3 -9 8 -8 9 2 70 -12 102 -24 14 -5 25 -8 25 -7 0 1 11 -4 25
-11 14 -8 30 -14 35 -15 18 0 160 -48 169 -57 6 -4 18 -8 28 -8 10 0 18 -4 18
-10 0 -5 3 -9 8 -8 4 1 22 -2 39 -6 33 -8 97 -72 87 -88 -3 -4 -1 -8 3 -8 5 0
22 -25 38 -55 17 -30 33 -55 38 -55 4 0 7 -6 7 -14 0 -7 8 -24 18 -37 10 -13
30 -44 43 -69 13 -25 27 -46 32 -48 4 -2 7 -8 7 -13 0 -5 29 -57 65 -114 36
-58 65 -109 65 -114 0 -5 7 -14 15 -21 8 -7 15 -19 15 -27 0 -8 7 -22 16 -31
18 -18 12 -24 69 74 50 86 153 258 162 269 4 6 22 36 38 68 17 31 34 57 39 57
5 0 6 3 3 7 -4 3 -1 13 6 22 7 9 32 48 56 87 47 80 72 106 104 111 11 2 24 8
28 15 4 6 12 7 18 4 6 -4 11 -3 11 1 0 5 9 9 20 10 10 1 35 9 53 18 19 9 44
17 56 18 11 1 21 5 21 9 0 4 8 8 18 8 9 0 30 7 46 15 16 9 37 17 45 19 9 2 23
6 31 9 8 3 49 17 90 32 41 15 82 29 90 32 8 4 17 7 20 7 3 1 11 5 18 9 6 5 17
5 22 2 6 -3 10 -1 10 5 0 6 5 8 10 5 6 -3 10 -1 10 4 0 6 3 10 8 10 4 -1 9 0
12 1 3 1 13 3 23 5 63 12 57 27 -22 62 -31 14 -95 44 -143 68 -49 24 -88 41
-88 39 0 -3 -7 2 -16 10 -8 9 -20 14 -25 11 -5 -4 -9 -1 -9 4 0 6 -5 11 -10
11 -6 0 -86 37 -178 81 -92 45 -206 100 -254 123 l-87 41 -25 65 c-21 55 -28
78 -41 130 -1 3 -5 12 -8 20 -22 52 -60 157 -61 170 -1 8 -8 25 -15 38 -6 12
-9 26 -6 31 3 5 2 11 -2 13 -5 1 -35 82 -67 178 -33 96 -60 176 -62 178 -1 2
-5 -1 -8 -7z"/>
</g>
</svg>
