<svg width="43" height="43" viewBox="0 0 43 43" fill="none" xmlns="http://www.w3.org/2000/svg">
<circle cx="22.0625" cy="21.0596" r="16.2625" stroke="white" stroke-width="1.4"/>
<circle cx="22.0625" cy="21.0596" r="1.4375" fill="white"/>
<path d="M20.625 41.3459C20.625 41.8982 21.0727 42.3459 21.625 42.3459C22.1773 42.3459 22.625 41.8982 22.625 41.3459L20.625 41.3459ZM22.625 33.7209C22.625 33.1687 22.1773 32.7209 21.625 32.7209C21.0727 32.7209 20.625 33.1687 20.625 33.7209L22.625 33.7209ZM22.625 41.3459L22.625 33.7209L20.625 33.7209L20.625 41.3459L22.625 41.3459Z" fill="white"/>
<path d="M20.625 8.92895C20.625 9.48124 21.0727 9.92896 21.625 9.92896C22.1773 9.92896 22.625 9.48124 22.625 8.92896L20.625 8.92895ZM22.625 1.30396C22.625 0.75167 22.1773 0.303955 21.625 0.303955C21.0727 0.303955 20.625 0.75167 20.625 1.30395L22.625 1.30396ZM22.625 8.92896L22.625 1.30396L20.625 1.30395L20.625 8.92895L22.625 8.92896Z" fill="white"/>
<path d="M41.646 22.325C42.1983 22.325 42.646 21.8772 42.646 21.325C42.646 20.7727 42.1983 20.325 41.646 20.325L41.646 22.325ZM34.021 20.325C33.4687 20.325 33.021 20.7727 33.021 21.325C33.021 21.8772 33.4687 22.325 34.021 22.325L34.021 20.325ZM41.646 20.325L34.021 20.325L34.021 22.325L41.646 22.325L41.646 20.325Z" fill="white"/>
<path d="M9.229 22.325C9.78129 22.325 10.229 21.8772 10.229 21.325C10.229 20.7727 9.78129 20.325 9.229 20.325L9.229 22.325ZM1.604 20.325C1.05172 20.325 0.604004 20.7727 0.604004 21.325C0.604004 21.8772 1.05172 22.325 1.604 22.325L1.604 20.325ZM9.229 20.325L1.604 20.325L1.604 22.325L9.229 22.325L9.229 20.325Z" fill="white"/>
</svg>
