<svg width="35" height="33" viewBox="0 0 35 33" fill="none" xmlns="http://www.w3.org/2000/svg">
<path d="M13.9893 24.9468H9.13042C9.07519 24.9468 9.03042 24.9021 9.03042 24.8468V22.0958C9.03042 22.0406 9.07519 21.9958 9.13042 21.9958H13.9893C14.0445 21.9958 14.0893 22.0406 14.0893 22.0958V24.8468C14.0893 24.9021 14.0445 24.9468 13.9893 24.9468Z" stroke="white" stroke-linecap="round"/>
<path d="M14.0892 11.4835L14.0893 20.4906C14.0893 20.5458 14.0445 20.5906 13.9893 20.5906H11.5599H9.13042C9.07519 20.5906 9.03042 20.5458 9.03042 20.4906L9.0303 11.4835L9.64781 9.47163C10.2261 7.5874 12.8935 7.58744 13.4718 9.47168L14.0892 11.4835Z" stroke="white" stroke-linecap="round"/>
<path d="M21.4174 24.9468H16.5585C16.5033 24.9468 16.4585 24.9021 16.4585 24.8468V22.0958C16.4585 22.0406 16.5033 21.9958 16.5585 21.9958H21.4174C21.4726 21.9958 21.5174 22.0406 21.5174 22.0958V24.8468C21.5174 24.9021 21.4726 24.9468 21.4174 24.9468Z" stroke="white" stroke-linecap="round"/>
<path d="M21.5173 11.4835L21.5174 20.4906C21.5174 20.5458 21.4726 20.5906 21.4174 20.5906H18.9879H16.5585C16.5033 20.5906 16.4585 20.5458 16.4585 20.4906L16.4584 11.4835L17.0759 9.47165C17.6542 7.58741 20.3216 7.58745 20.8998 9.4717L21.5173 11.4835Z" stroke="white" stroke-linecap="round"/>
<path d="M28.8535 24.9468H23.9946C23.9394 24.9468 23.8946 24.9021 23.8946 24.8468V22.0958C23.8946 22.0406 23.9394 21.9958 23.9946 21.9958H28.8535C28.9087 21.9958 28.9535 22.0406 28.9535 22.0958V24.8468C28.9535 24.9021 28.9087 24.9468 28.8535 24.9468Z" stroke="white" stroke-linecap="round"/>
<path d="M28.9534 11.4835L28.9535 20.4906C28.9535 20.5458 28.9087 20.5906 28.8535 20.5906H26.4241H23.9946C23.9394 20.5906 23.8946 20.5458 23.8946 20.4906L23.8945 11.4835L24.512 9.47164C25.0903 7.58741 27.7577 7.58745 28.336 9.47169L28.9534 11.4835Z" stroke="white" stroke-linecap="round"/>
<path d="M1.42617 12.0984C6.10737 8.04981 11.3326 1.47083 18.3165 1.47083C27.8054 1.47083 33.306 8.47493 33.7771 14.7553C34.4712 24.0111 28.0555 30.7028 21.239 31.5823C11.6988 32.8133 6.84118 27.9386 4.43732 21.4861M0.730316 7.64495V12.7816H5.79108" stroke="white" stroke-width="1.4" stroke-linecap="round" stroke-linejoin="round"/>
</svg>
