<svg width="32" height="33" viewBox="0 0 32 33" fill="none" xmlns="http://www.w3.org/2000/svg">
<path d="M22.4961 3.14514C21.9439 3.14514 21.4961 3.59286 21.4961 4.14514C21.4961 4.69743 21.9439 5.14514 22.4961 5.14514V3.14514ZM28.514 11.5423C28.514 12.0946 28.9617 12.5423 29.514 12.5423C30.0663 12.5423 30.514 12.0946 30.514 11.5423H28.514ZM22.4961 5.14514H27.514V3.14514H22.4961V5.14514ZM28.514 6.14514V11.5423H30.514V6.14514H28.514ZM27.514 5.14514C28.0663 5.14514 28.514 5.59286 28.514 6.14514H30.514C30.514 4.48829 29.1708 3.14514 27.514 3.14514V5.14514Z" fill="white"/>
<path d="M9.04919 32.4396C9.60148 32.4396 10.0492 31.9919 10.0492 31.4396C10.0492 30.8873 9.60148 30.4396 9.04919 30.4396L9.04919 32.4396ZM3.03134 24.0424C3.03134 23.4901 2.58363 23.0424 2.03134 23.0424C1.47906 23.0424 1.03134 23.4901 1.03134 24.0424L3.03134 24.0424ZM9.04919 30.4396L4.03134 30.4396L4.03134 32.4396L9.04919 32.4396L9.04919 30.4396ZM3.03134 29.4396L3.03134 24.0424L1.03134 24.0424L1.03134 29.4396L3.03134 29.4396ZM4.03134 30.4396C3.47906 30.4396 3.03134 29.9919 3.03134 29.4396L1.03134 29.4396C1.03134 31.0964 2.37449 32.4396 4.03134 32.4396L4.03134 30.4396Z" fill="white"/>
<path d="M0.841675 11.3527C0.841675 11.9049 1.28939 12.3527 1.84167 12.3527C2.39396 12.3527 2.84167 11.9049 2.84167 11.3527L0.841675 11.3527ZM9.23887 5.33481C9.79115 5.33481 10.2389 4.88709 10.2389 4.33481C10.2389 3.78253 9.79115 3.33481 9.23887 3.33481L9.23887 5.33481ZM2.84167 11.3527L2.84167 6.33481L0.841675 6.33481L0.841675 11.3527L2.84167 11.3527ZM3.84167 5.33481L9.23887 5.33481L9.23887 3.33481L3.84167 3.33481L3.84167 5.33481ZM2.84167 6.33481C2.84167 5.78253 3.28939 5.33481 3.84167 5.33481L3.84167 3.33481C2.18482 3.33481 0.841675 4.67796 0.841675 6.33481L2.84167 6.33481Z" fill="white"/>
<path d="M30.7037 24.2321C30.7037 23.6798 30.256 23.2321 29.7037 23.2321C29.1514 23.2321 28.7037 23.6798 28.7037 24.2321L30.7037 24.2321ZM22.3065 30.2499C21.7542 30.2499 21.3065 30.6976 21.3065 31.2499C21.3065 31.8022 21.7542 32.2499 22.3065 32.2499L22.3065 30.2499ZM28.7037 24.2321L28.7037 29.2499L30.7037 29.2499L30.7037 24.2321L28.7037 24.2321ZM27.7037 30.2499L22.3065 30.2499L22.3065 32.2499L27.7037 32.2499L27.7037 30.2499ZM28.7037 29.2499C28.7037 29.8022 28.256 30.2499 27.7037 30.2499L27.7037 32.2499C29.3605 32.2499 30.7037 30.9068 30.7037 29.2499L28.7037 29.2499Z" fill="white"/>
<path d="M12.5854 28.7063L7.15523 24.527C7.11146 24.4933 7.10329 24.4305 7.13697 24.3868L9.52407 21.2852C9.55776 21.2415 9.62054 21.2333 9.66431 21.267L15.0945 25.4463C15.1382 25.48 15.1464 25.5428 15.1127 25.5865L12.7256 28.6881C12.6919 28.7318 12.6291 28.74 12.5854 28.7063Z" stroke="white" stroke-width="1.4" stroke-linecap="round"/>
<path d="M24.0933 13.9178L16.4295 23.8756C16.3958 23.9194 16.333 23.9276 16.2893 23.8939L13.5742 21.8042L10.8591 19.7146C10.8153 19.6809 10.8072 19.6181 10.8409 19.5743L18.5047 9.61651C18.5168 9.60074 18.5312 9.58688 18.5475 9.57537L20.3525 8.2948C22.7638 6.58412 25.9344 9.02444 24.898 11.7933L24.1221 13.8659C24.1152 13.8845 24.1055 13.902 24.0933 13.9178Z" stroke="white" stroke-width="1.4" stroke-linecap="round"/>
</svg>
